<?xml version="1.0" encoding="utf-8"?>
<!-- Generator: Adobe Illustrator 24.0.1, SVG Export Plug-In . SVG Version: 6.00 Build 0)  -->
<svg version="1.1" xmlns="http://www.w3.org/2000/svg" xmlns:xlink="http://www.w3.org/1999/xlink" x="0px" y="0px" width="360px"
	 height="360px" viewBox="0 0 360 360" style="enable-background:new 0 0 360 360;" xml:space="preserve">
<style type="text/css">
	.st0{display:none;}
	.st1{fill:#FFFFFF;}
	.st2{display:none;opacity:0.9;}
	.st3{display:inline;}
	.st4{fill:url(#SVGID_1_);}
	.st5{fill:url(#SVGID_2_);}
	.st6{fill:url(#SVGID_3_);}
	.st7{clip-path:url(#SVGID_5_);}
	.st8{clip-path:url(#SVGID_7_);}
	.st9{filter:url(#Adobe_OpacityMaskFilter);}
	.st10{clip-path:url(#SVGID_9_);}
	.st11{clip-path:url(#SVGID_14_);}
	.st12{fill:#F9B233;}
	.st13{fill:url(#SVGID_17_);}
	.st14{fill:url(#SVGID_18_);}
	.st15{fill:none;stroke:#000000;stroke-width:3;stroke-linecap:round;stroke-miterlimit:10;}
</style>
<g id="Слой_4" class="st0">
	
		<image style="display:inline;overflow:visible;" width="512" height="512" xlink:href="E:\work\Rassvet.Kzn\инстаграм\1491580635-yumminkysocialmedia26_83102.png"  transform="matrix(0.7031 0 0 0.7031 0 0)">
	</image>
</g>
<g id="Окружность">
	<g>
		<circle class="st1" cx="180" cy="180" r="172.5"/>
	</g>
</g>
<g id="Сереневый_рассвет" class="st2">
	<g class="st3">
		<radialGradient id="SVGID_1_" cx="179.9583" cy="180" r="172.5" gradientUnits="userSpaceOnUse">
			<stop  offset="0.1909" style="stop-color:#FFF6E3"/>
			<stop  offset="0.4025" style="stop-color:#FFDB93"/>
			<stop  offset="0.4144" style="stop-color:#FFD98E"/>
			<stop  offset="0.6103" style="stop-color:#DCB9C3"/>
			<stop  offset="0.6954" style="stop-color:#CDAAD1"/>
			<stop  offset="1" style="stop-color:#526DB1;stop-opacity:0.9"/>
		</radialGradient>
		<circle class="st4" cx="179.96" cy="180" r="172.5"/>
	</g>
</g>
<g id="Угасающее_небо" class="st0">
	<g class="st3">
		<linearGradient id="SVGID_2_" gradientUnits="userSpaceOnUse" x1="9.4355" y1="180" x2="354.4355" y2="180">
			<stop  offset="0" style="stop-color:#2581C4"/>
			<stop  offset="1" style="stop-color:#2581C4;stop-opacity:0"/>
		</linearGradient>
		<circle class="st5" cx="181.94" cy="180" r="172.5"/>
	</g>
</g>
<g id="Северное_небо" class="st0">
	<g class="st3">
		<linearGradient id="SVGID_3_" gradientUnits="userSpaceOnUse" x1="9.4355" y1="180" x2="354.4355" y2="180">
			<stop  offset="0" style="stop-color:#4278BC"/>
			<stop  offset="0.4972" style="stop-color:#524E9C;stop-opacity:0.5"/>
			<stop  offset="1" style="stop-color:#2581C4;stop-opacity:0.1"/>
		</linearGradient>
		<circle class="st6" cx="181.94" cy="180" r="172.5"/>
	</g>
</g>
<g id="Краски" class="st0">
	<g class="st3">
		<g>
			<defs>
				<circle id="SVGID_4_" cx="179.96" cy="180" r="172.5"/>
			</defs>
			<clipPath id="SVGID_5_">
				<use xlink:href="#SVGID_4_"  style="overflow:visible;"/>
			</clipPath>
			<g class="st7">
				<g>
					<defs>
						<rect id="SVGID_6_" x="2.46" y="2.5" width="355" height="355"/>
					</defs>
					<clipPath id="SVGID_7_">
						<use xlink:href="#SVGID_6_"  style="overflow:visible;"/>
					</clipPath>
					<g class="st8">
						<defs>
							<rect id="SVGID_8_" x="2.46" y="2.5" width="355" height="355"/>
						</defs>
						<clipPath id="SVGID_9_">
							<use xlink:href="#SVGID_8_"  style="overflow:visible;"/>
						</clipPath>
						<defs>
							<filter id="Adobe_OpacityMaskFilter" filterUnits="userSpaceOnUse" x="2.4" y="2.4" width="355.2" height="355.2">
								<feColorMatrix  type="matrix" values="1 0 0 0 0  0 1 0 0 0  0 0 1 0 0  0 0 0 1 0"/>
							</filter>
						</defs>
						<mask maskUnits="userSpaceOnUse" x="2.4" y="2.4" width="355.2" height="355.2" id="SVGID_10_">
							<g class="st9">
								<g>
									<defs>
										<rect id="SVGID_11_" x="2.46" y="2.5" width="355" height="355"/>
									</defs>
									<clipPath id="SVGID_12_" class="st10">
										<use xlink:href="#SVGID_11_"  style="overflow:visible;"/>
									</clipPath>
									<g style="clip-path:url(#SVGID_12_);">
										
											<image style="overflow:visible;" width="740" height="740" xlink:href="A62562E7.jpg"  transform="matrix(0.48 0 0 0.48 2.4 2.4)">
										</image>
									</g>
								</g>
							</g>
						</mask>
						<g style="clip-path:url(#SVGID_9_);mask:url(#SVGID_10_);">
							
								<image style="overflow:visible;" width="740" height="740" xlink:href="A62562E5.jpg"  transform="matrix(0.48 0 0 0.48 2.4 2.4)">
							</image>
						</g>
					</g>
				</g>
			</g>
		</g>
	</g>
</g>
<g id="Моя_любовь_к_тебе">
	<g>
		<g>
			<defs>
				<circle id="SVGID_13_" cx="179.96" cy="180" r="180"/>
			</defs>
			<clipPath id="SVGID_14_">
				<use xlink:href="#SVGID_13_"  style="overflow:visible;"/>
			</clipPath>
			<g class="st11">
				<g>
					<defs>
						<rect id="SVGID_15_" x="-5.04" y="-5" width="370" height="370"/>
					</defs>
					<clipPath id="SVGID_16_">
						<use xlink:href="#SVGID_15_"  style="overflow:visible;"/>
					</clipPath>
					<g style="clip-path:url(#SVGID_16_);">
						
							<image style="overflow:visible;" width="772" height="772" xlink:href="A62562E3.jpg"  transform="matrix(0.48 0 0 0.48 -5.28 -5.28)">
						</image>
					</g>
				</g>
			</g>
		</g>
	</g>
</g>
<g id="Слой_3">
	<g class="st0">
		<g class="st3">
			<path class="st12" d="M152.99,151.54c-0.44-1.42-0.94-2.92-0.88-4.43c0.02-0.59,0.13-1.26,0.33-1.77
				c0.12-0.3,0.26-0.59,0.45-0.85c0.03-0.04,0.07-0.09,0.17-0.21c0.05-0.06,0.44-0.4,0.17-0.19c0.06-0.05,0.25-0.24,0.33-0.24
				c-0.18,0.1-0.2,0.11-0.06,0.03c0.03-0.02,0.06-0.03,0.09-0.05c0.06-0.03,0.12-0.06,0.18-0.08c0.16-0.06,0.12-0.05-0.09,0.03
				c0-0.01,0.39-0.12,0.39-0.11c-0.23,0.04-0.26,0.04-0.09,0.02c0.07-0.01,0.13-0.02,0.2-0.02c0.09-0.01,0.22-0.04,0.31-0.02
				c-0.2,0-0.22,0-0.06,0c0.07,0,0.14,0.01,0.2,0.02c0.07,0.01,0.5,0.09,0.17,0.01c0.24,0.05,0.46,0.13,0.68,0.21
				c0.12,0.05,0.13,0.05,0,0c0.06,0.03,0.12,0.06,0.18,0.09c0.12,0.06,0.23,0.13,0.35,0.21c0.08,0.06,0.16,0.12,0.24,0.18
				c0.1,0.08,0.1,0.09,0.02,0.02c0.05,0.05,0.1,0.09,0.14,0.14c0.19,0.2,0.34,0.42,0.48,0.65c0.14,0.24,0.57,0.35,0.81,0.38
				c0.36,0.04,0.82-0.04,1.14-0.21c0.54-0.27,1.07-0.79,0.71-1.41c-1.19-2.03-3.88-2.61-6.04-2.11c-2.62,0.61-4.27,2.97-4.34,5.59
				c-0.05,1.68,0.42,3.3,0.91,4.89c0.2,0.66,1.15,0.7,1.7,0.54C152.29,152.7,153.2,152.22,152.99,151.54L152.99,151.54z"/>
		</g>
	</g>
	<g class="st0">
		<g class="st3">
			<path class="st12" d="M152.6,147.37c-2.52,1.23-5.04,2.47-7.56,3.7c0.76,0.01,1.53,0.02,2.29,0.03c1.04-2.62,3.4-4.76,6.32-4.74
				c-0.17-0.25-0.34-0.5-0.52-0.76c-1.43,0.86-3.01,1.91-4.7,2.12c-1.43,0.18-2.97-0.41-3.98-1.42c-1.2-1.18-1.37-2.92-0.68-4.41
				c0.76-1.64,2.28-2.48,3.98-2.88c-0.49-0.15-0.98-0.31-1.47-0.46c-4.01,3.99-8.81,8.25-9.75,14.13c-0.13,0.82,2.75,0.32,2.87-0.47
				c0.92-5.77,5.59-9.88,9.52-13.8c0.72-0.72-1.26-0.51-1.47-0.46c-2.39,0.56-4.94,1.67-6.27,3.85c-1.14,1.87-0.96,4.19,0.69,5.68
				c3.93,3.55,9.77,0.57,13.5-1.68c0.8-0.48-0.04-0.75-0.52-0.76c-4.29-0.03-8.78,2.43-10.4,6.52c-0.33,0.82,2.08,0.13,2.29,0.03
				c2.52-1.23,5.04-2.47,7.56-3.7c0.36-0.18,0.89-0.6,0.33-0.87C154.08,146.76,153.1,147.12,152.6,147.37L152.6,147.37z"/>
		</g>
	</g>
	<g class="st0">
		<g class="st3">
			<path class="st12" d="M134.53,159.69c1.42-9.7,8.56-18.17,17.71-21.58c9.44-3.52,19.77-0.59,26.98,6.16
				c4.07,3.81,6.95,8.8,8.08,14.26c0.85-0.42,1.7-0.84,2.56-1.26c-5.94-4.67-14.02-3.18-20.69-1.23c-3.97,1.16-7.99,2.53-12.17,2.54
				c-4.32,0.01-8.45-1.52-12.7-2.06c-4.13-0.52-8.35-0.12-11.87,2.26c-0.55,0.37-0.67,1.15-0.13,1.58c0.6,0.48,1.52,0.23,2.08-0.15
				c2.83-1.91,6.48-1.86,9.73-1.36c3.87,0.59,7.62,1.8,11.55,1.95c7.5,0.29,14.19-3.58,21.53-4.28c3.7-0.35,7.46,0.13,10.45,2.48
				c0.85,0.67,2.81-0.02,2.56-1.26c-2.2-10.6-10.83-19.35-21.17-22.31c-10.63-3.04-21.8,0.57-29.41,8.4
				c-4.24,4.37-7.14,9.99-8.03,16.03C131.36,161.41,134.32,161.07,134.53,159.69L134.53,159.69z"/>
		</g>
	</g>
	<g class="st0">
		<g class="st3">
			<path class="st12" d="M134.73,160.04c0.36-3.49,2.18-6.63,5.01-8.7c-0.91,0.13-1.82,0.25-2.74,0.38
				c-0.75,2.03-1.5,4.06-2.24,6.09c0.95-0.17,1.9-0.35,2.86-0.52c0.92-2.53,2.71-4.63,5.21-5.69c-0.73,0.1-1.46,0.21-2.2,0.31
				c0.53,0.46,0.68,1.17,0.5,1.84c-0.05,0.19-0.34,0.53-0.33,0.68c1.1,0.01,1.38-0.08,0.84-0.27c-0.18-0.06-0.34-0.15-0.47-0.28
				c-1.56-1.28-0.67-3.6-0.09-5.13c0.3-0.78,0.61-1.57,1.07-2.26c0.16-0.23,0.73-1.12,1.1-1.12c0.02,0,0.62,0.41,0.75,0.51
				c1.41,1.17,1.09,3.28,0.41,4.73c-0.34,0.72-0.75,1.42-1.19,2.07c-0.17,0.26-0.36,0.51-0.56,0.74c-0.36,0.27-0.35,0.33,0.02,0.17
				c0.36-0.03,0.37-0.11,0.04-0.24c-0.21-0.15-0.37-0.34-0.48-0.57c-0.98-1.7,0.49-3.36,1.64-4.5c0.41-0.41,1.17-1.43,1.79-1.47
				c0.93-0.07,1.53,1.11,1.57,1.85c0.1,2.07-1.67,2.79-3.38,3.01c0.27,0.06,0.54,0.12,0.82,0.18c-0.51-2.39-0.22-4.95,1.12-7.04
				c0.6-0.93,1.32-1.84,2.49-1.32c0.96,0.43,1.5,1.35,1.51,2.38c0.01,0.61-0.39,2.1-1.02,2.26c-1.02,0.26-2.23-0.99-2.66-1.75
				c-0.81-1.41-0.87-3.89,0.73-4.83c1.58-0.93,3.38,1.29,3.69,2.62c0.2,0.88,0.14,1.83-0.28,2.64c-0.5,0.95-0.76,1.04-1.77,0.55
				c-2.13-1.04-1.9-3.63-0.52-5.23c1.2-1.39,2.89-1.5,4.44-0.53c1.73,1.09,2.43,3.53,1.37,5.33c-1.35,2.29-3.41-0.54-3.59-2.16
				c-0.24-2.12,1.17-3.98,2.91-5.04c1.7-1.03,3.9,0.18,3.27,2.33c-0.5,1.7-3.07,4.4-4.97,3.58c-2.5-1.07-1.48-4.11,0.35-5.27
				c1.82-1.16,4.64-2.36,6.7-1.21c2.06,1.15,2,3.73,0.43,5.3c-0.93,0.93-2.17,1.21-3.4,1.46c-1.45,0.29-3.02,0.67-4.4-0.06
				c-2.51-1.33-1.81-4.86,0.82-5.58c1.08-0.3,2.7-0.55,3.79-0.25c0.67,0.18,1.22,0.65,1.42,1.32c0.06,0.2,0.04,0.4,0.08,0.6
				c-0.04,0.14-0.09,0.29-0.13,0.43c0.86-0.05,1.05-0.1,0.59-0.15c-1.23-0.47-2.65-0.7-3.93-1.06c-1.51-0.43-3.01-0.86-4.52-1.28
				c-0.03,0.19-0.06,0.39-0.09,0.58c3.41-1.81,7.28-2.08,11.01-1.22c0.58,0.13,1.33-0.08,1.86-0.31c0.11-0.05,1.12-0.55,0.7-0.73
				c-2.87-1.25-5.8-2.37-8.98-1.79c-2.46,0.45-5.17,1.69-6.05,4.2c-0.26,0.74,2.48-0.17,2.74-0.38c3.62-2.96,8.1-4.23,12.74-3.56
				c-0.04-0.14-0.08-0.29-0.12-0.43c-4.85,4.22-10.38,7.57-16.41,9.82c0.6,0.06,1.2,0.13,1.81,0.19c3.99-3.18,8.65-5.3,13.69-6.12
				c-0.38-0.09-0.77-0.17-1.15-0.26c-1.94,2.78-4.91,4.96-8.34,5.32c0.23,0.15,0.45,0.3,0.68,0.45c2.56-2.16,5.53-3.4,8.88-3.56
				c-0.23-0.15-0.45-0.3-0.68-0.45c-1.09,1.12-2.17,2.24-3.26,3.36c-0.44,0.46,0.4,0.47,0.68,0.45c0.59-0.04,1.51-0.24,1.94-0.69
				c1.09-1.12,2.17-2.24,3.26-3.36c0.45-0.46-0.41-0.46-0.68-0.45c-4.64,0.22-9.2,1.92-12.76,4.93c-0.51,0.43,0.46,0.47,0.68,0.45
				c4.93-0.53,9.59-2.86,12.46-6.98c0.3-0.43-1.13-0.26-1.15-0.26c-6.15,1-11.97,3.51-16.86,7.39c-0.75,0.59,1.62,0.26,1.81,0.19
				c6.6-2.47,12.71-6.05,18.03-10.68c0.2-0.18,0.17-0.39-0.12-0.43c-6.25-0.9-12.85,0.9-17.74,4.9c0.91-0.13,1.82-0.25,2.74-0.38
				c1.53-4.4,6.39-2.25,9.44-0.92c0.85-0.35,1.71-0.69,2.56-1.04c-5.29-1.23-10.84-0.27-15.61,2.26c-0.29,0.16-0.51,0.46-0.09,0.58
				c2.38,0.68,4.75,1.36,7.13,2.03c1.68,0.47,3.38,0.59,4.98-0.28c1.33-0.73,1.57-2.31,0.3-3.3c-1.38-1.08-3.66-0.64-5.25-0.44
				c-2.75,0.35-8.37,1.88-7.34,5.82c1.05,4.05,7.32,2.44,10.04,1.74c1.76-0.45,3.67-1.13,4.95-2.48c1.13-1.2,1.82-3.03,0.93-4.57
				c-1.92-3.31-6.86-1.85-9.61-0.77c-1.75,0.69-3.71,1.39-4.97,2.87c-1.03,1.21-1.45,3.07-0.28,4.33c2.46,2.65,7.25,0.24,9.42-1.58
				c1.18-0.98,2.6-2.62,2.21-4.29c-0.36-1.52-1.93-1.99-3.3-1.98c-3.15,0.03-6.95,1.92-8.3,4.88c-0.65,1.43-0.62,3.19,0.3,4.5
				c0.93,1.32,2.45,1.66,3.98,1.48c1.58-0.19,3.33-0.83,4.34-2.12c1.07-1.37,1.1-3.4,0.18-4.85c-1.7-2.68-5.42-2.53-8.06-1.59
				c-2.62,0.93-6.31,4.48-3.6,7.26c1.98,2.03,6.32,1.28,7.94-0.86c2.01-2.65-0.01-6.26-3.11-6.55c-2.79-0.26-6.69,1.15-6.98,4.35
				c-0.13,1.48,0.51,3.04,1.73,3.92c1.38,0.99,3.22,0.87,4.78,0.42c1.56-0.45,3.08-1.39,3.43-3.08c0.33-1.57-0.5-2.99-2-3.51
				c-3.28-1.14-7,1.14-8.29,4.12c-0.84,1.94-0.99,4.09-0.55,6.15c0.05,0.26,0.66,0.2,0.82,0.18c2.28-0.3,5.28-0.7,6.79-2.67
				c1.38-1.8,0.72-4.23-1.68-4.46c-2.69-0.26-4.95,1.31-6.73,3.14c-1.31,1.35-3.1,3.96-0.98,5.52c1.77,1.3,4.65-0.25,5.77-1.72
				c1.37-1.8,2.98-4.62,1.69-6.86c-1.19-2.08-3.97-1.63-5.81-0.76c-2.37,1.12-3.49,3.82-4.05,6.24c-0.28,1.19-0.26,2.45,0.62,3.39
				c0.89,0.95,2.23,0.9,3.39,0.56c1.77-0.52,3.63-2.63,1.78-4.25c-0.45-0.4-1.78,0.14-2.2,0.31c-2.95,1.25-5.31,3.53-6.4,6.56
				c-0.18,0.49,2.59,0.21,2.86-0.52c0.75-2.03,1.5-4.06,2.24-6.09c0.28-0.75-2.49,0.2-2.74,0.38c-3.02,2.21-4.91,5.53-5.29,9.24
				C131.8,161.15,134.64,160.89,134.73,160.04L134.73,160.04z"/>
		</g>
	</g>
	<g class="st0">
		<g class="st3">
			<path class="st12" d="M148.19,153.94c-0.3,0.13-0.6,0.25-0.9,0.38c-1.28,0.34-2.57,0.69-3.85,1.03
				c-0.77,0.19-1.55,0.25-2.32,0.17c-0.35-0.04-0.28-0.01,0.21,0.07c0.41,0.13,0.34,0.08,0.75,0.27c0.64,0.29,1.24,0.66,1.84,1.03
				c1.49,0.91,2.9,1.74,4.58,2.26c4.83,1.49,10.53,0.17,15.21-1.28c2.28-0.7,4.48-1.56,6.68-2.46c0.35-0.14,0.69-0.28,1.04-0.43
				c1.48-0.63-1.55,0.56-0.18,0.07c0.37-0.13,0.74-0.27,1.11-0.4c1.21-0.44-1.48,0.41-0.58,0.17c0.32-0.08,0.65-0.15,0.96-0.25
				c-1.24,0.27-1.57,0.35-0.98,0.24c0.53-0.1,0.26-0.06-0.82,0.1c0.13-0.02,0.26-0.03,0.38-0.05c0.65-0.05,0.51-0.05-0.41,0
				c0.03,0.05,1.29-0.02,0.5-0.02c-0.68,0,0.32,0.05,0.48,0.08c-0.01,0,1.06,0.26,0.55,0.1c0.7,0.24,1.35,0.64,1.95,1.07
				c4.56-1.61,9.12-3.22,13.68-4.84c-5.17-3.22-11.55-3.45-17.39-2.25c-2.23,0.46-4.38,1.09-6.54,1.79
				c-0.54,0.17-1.09,0.44-1.65,0.54c0.24-0.05,1.67-0.52,0.66-0.22c-1.11,0.33,0.91-0.18,1.15-0.22c1.47-0.26-0.84,0.05,0.59-0.06
				c1.3-0.1-0.5-0.13,0.41-0.01c0.75,0.1-0.21-0.06-0.36-0.09c-0.21-0.05-0.43-0.1-0.64-0.17c0.56,0.2-0.43-0.26-0.6-0.37
				c-0.45-0.28-0.82-0.63-1.17-1.03c0.14,0.16,0.27,0.32,0.41,0.48c-0.66-0.89-0.94-1.82-0.82-2.93c-0.04,0.21-0.07,0.41-0.11,0.62
				c0.08-0.41,0.18-0.81,0.37-1.19c0.09-0.19,0.21-0.36,0.31-0.54c0.06-0.08,0.12-0.17,0.18-0.25c-0.23,0.26-0.25,0.3-0.07,0.13
				c1.42-1.2-0.19-0.79-4.84,1.24c-1.76,1.53-3.46,1.96-5.1,1.29c-0.27-0.24,0.19,0.1,0.27,0.16c0.4,0.27,0.73,0.55,1.05,0.92
				c-0.14-0.16-0.27-0.32-0.41-0.48c0.56,0.77,0.85,1.6,0.74,2.56c0.04-0.21,0.07-0.41,0.11-0.62c-0.06,0.26-0.16,0.49-0.24,0.73
				c-0.04,0.1-0.09,0.19-0.15,0.28c-0.14,0.21-0.1,0.19,0.11-0.08c-0.08,0.07-0.15,0.14-0.23,0.21c0.17-0.12,0.34-0.24,0.51-0.36
				c1.64-1.01,3.76-1.57,5.61-1.86c0.33-0.07,0.66-0.11,0.99-0.11c0.55-0.02,0.58-0.03,0.1-0.03c0.44,0.03,0.79,0.12,0.15,0
				c-0.64-0.12-1.28-0.24-1.92-0.39c-2.91-0.72-5.69-1.65-8.73-1.62c-4.79,0.05-10.02,1.4-14.13,3.91
				c-2.24,1.37-4.15,3.24-4.16,6.01c0,0.81,2.26,0.88,2.51,0.89c1.79,0.01,3.55-0.34,5.28-0.77c0.96-0.24,1.92-0.48,2.87-0.71
				c-2.6-0.04-5.2-0.08-7.8-0.11c0.02,0.08,0.03,0.16,0.05,0.23c0.04-0.21,0.07-0.41,0.11-0.62c-0.12,0.35-0.06,0.31,0.19-0.12
				c1.36-0.7,2.72-1.4,4.08-2.1c-0.08,0.03-0.15,0.05-0.23,0.08c2.4-0.45,4.79-0.91,7.19-1.36c-0.08,0-0.15-0.01-0.23-0.01
				c0.7,0.14,1.4,0.27,2.11,0.41c-0.07-0.04-0.14-0.08-0.21-0.12c-0.1,0.59-0.2,1.19-0.31,1.78c2.7-2.7,4.28-5.84,4.66-9.65
				c0.12-1.2-3.68-0.85-4.06-0.81c-0.45,0.04-0.89,0.08-1.34,0.12c0.78,0.95,1.55,1.89,2.33,2.84c0.59-0.4,1.19-0.79,1.8-1.16
				c0.25-0.15,0.49-0.29,0.74-0.43c0.17-0.09,1.27-0.68,0.44-0.25c-0.84,0.43,0.4-0.19,0.46-0.22c0.26-0.12,0.52-0.24,0.78-0.36
				c0.23-0.1,1.43-0.6,0.35-0.16c-1.11,0.45,0.23-0.07,0.37-0.12c0.27-0.1,0.55-0.17,0.81-0.28c-1.97,0.79-1.01,0.3-0.47,0.15
				c0.34-0.1,0.69-0.18,1.04-0.27c1.04-0.27-0.51,0.05-0.69,0.16c0.46-0.28,2.92-0.29,0.75-0.17c0.71-0.04,1.42-0.16,2.14-0.21
				c2.82-0.21,6.28-1.11,8.69-2.67c0.51-0.33,1.36-0.81,1.62-1.41c0.36-0.81-0.4-1.31-1.15-1.39c-2.71-0.27-5.43-0.54-8.14-0.81
				c-0.62,1.17-1.23,2.34-1.85,3.51c0.66-0.29,0.42-0.21-0.71,0.26c0.22-0.08,0.44-0.16,0.66-0.24c-0.41,0.13-0.83,0.26-1.24,0.38
				c0.76-0.2,0.45-0.14-0.93,0.19c0.23-0.05,0.46-0.09,0.69-0.13c-0.36,0.05-0.73,0.1-1.09,0.16c0.23-0.03,0.46-0.05,0.7-0.07
				c0.63-0.04,0.46-0.04-0.5,0.02c0.28,0.09,0.77,0.01,1.05,0.01c1.07-0.01-0.82-0.15,0.15,0c0.81,0.12,1.61,0.25,2.41,0.47
				c0.01,0,1.06,0.31,0.48,0.12c0.39,0.13,0.77,0.29,1.14,0.45c0.7,0.3,1.37,0.65,2.02,1.05c1.4,0.85,2.65,1.91,3.73,3.14
				c-0.14-0.16-0.27-0.32-0.41-0.48c0.08,0.09,0.15,0.18,0.23,0.27c0.58-0.67,1.15-1.35,1.73-2.02c-0.88,0.55,0.7-0.29,0.93-0.38
				c1.01-0.4,1.98-0.62,3.04-0.83c1.46-0.23,1.78-0.3,0.97-0.21c0.27-0.02,0.55-0.03,0.82-0.05c-0.89,0.02,0.51,0.15-0.02,0
				c-0.23-0.06-0.48-0.09-0.71-0.15c-0.31-0.07,0.16,0.12-0.34-0.11c-0.56-0.25-1.07-0.55-1.57-0.91
				c-3.34,1.72-6.68,3.45-10.02,5.17c0.34-0.04,0.67-0.06,1.01-0.1c0.77-0.1-1.47-0.01-0.14,0.01c0.27,0.01,0.54,0,0.81,0.01
				c0.13,0,1.24,0.1,0.59,0.03c-0.65-0.07,0.59,0.09,0.58,0.09c0.27,0.04,0.53,0.09,0.8,0.14c0.66,0.13,1.32,0.3,1.97,0.48
				c0.76,0.22,1.93,0.73,2.89,1.23c1.2,0.63,2.32,1.39,3.37,2.24c0.78,0.62,2.85,0.41,3.66,0.34c1.87-0.17,3.88-0.64,5.64-1.29
				c0.9-0.33,6.27-2.37,4.38-3.88c-5.37-4.32-12.46-5.6-19.2-4.81c-2.76,0.32-5.53,1.04-8,2.32c-0.7,0.36-3.45,1.83-2.02,2.86
				c2.31,1.66,5.22,2.07,8,1.94c4.64-0.21,9.61-1.5,13.58-3.98c0.08-0.05,2.25-1.41,1.73-2.02c-7.68-9.11-21.23-7.81-31.12-3.3
				c-0.78,0.35-2.6,1.18-3,2.12c-0.35,0.81,0.37,1.31,1.15,1.39c2.71,0.27,5.43,0.54,8.14,0.81c3.05-1.82,6.11-3.65,9.16-5.47
				c-9.01,0.66-18.41,3.57-25.91,8.68c-0.72,0.49-2.14,1.24-1.53,2.26c0.6,0.99,3,0.65,3.86,0.58c0.45-0.04,0.89-0.08,1.34-0.12
				c-1.35-0.27-2.71-0.54-4.06-0.81c-0.04,0.39-0.09,0.78-0.15,1.17c0.04-0.21,0.07-0.41,0.11-0.62c-0.47,2.43-1.72,5.01-3.2,6.49
				c-0.44,0.44-1.16,1.27-0.31,1.78c0.99,0.59,2.2,0.56,3.32,0.51c2.25-0.1,4.53-0.63,6.65-1.4c1.42-0.51,5.63-1.93,5.15-4.21
				c-0.18-0.83-2.05-0.88-2.51-0.89c-1.79-0.01-3.55,0.34-5.28,0.77c-0.96,0.24-1.92,0.48-2.87,0.71c2.6,0.04,5.2,0.08,7.8,0.11
				c0-0.32,0.03-0.61,0.08-0.92c-0.04,0.21-0.07,0.41-0.11,0.62c0.13-0.51,0.35-0.9,0.57-1.37c0.22-0.48,0.12-0.2-0.04-0.03
				c0.05-0.05,0.66-0.66,0.7-0.62c0.01,0.01-1.02,0.69-0.22,0.19c-0.58,0.36-1.22,0.61-1.86,0.85c-1.17,0.44-2.46,0.75-3.71,0.86
				c-0.3,0.01-0.6,0.02-0.9,0.04c0.45,0.02,0.43,0-0.06-0.05c2.75,0.19,5.34,1.44,8.06,1.84c5.27,0.77,11.24-0.49,15.84-3.12
				c2.1-1.2,4.59-3.44,3.38-6.14c-1.62-3.6-6.23-3.27-9.45-2.69c-3.18,0.58-6.6,1.64-9.2,3.64c-0.95,0.73-1.85,1.73-2.21,2.9
				c-0.71,2.33,0.18,4.48,2.27,5.74c3.07,1.83,7.11,1.49,10.46,0.92c2.6-0.44,5.1-1.2,7.6-2.03c0.27-0.09,0.55-0.18,0.82-0.27
				c1.45-0.49-1.63,0.44-0.25,0.08c1.49-0.39-1.52,0.29-0.51,0.11c0.53-0.09,0.27-0.06-0.78,0.1c0.27-0.03,0.54-0.06,0.81-0.07
				c-0.03-0.02-1.47-0.01-0.33,0.04c0.14,0.01,1.47,0.12,0.38-0.01c0.75,0.09,1.48,0.22,2.21,0.4c1.24,0.31,2.52,0.92,3.8,1.72
				c0.94,0.58,2.68,0.43,3.66,0.34c1.87-0.17,3.88-0.64,5.64-1.29c0.81-0.3,6.34-2.47,4.38-3.88c-3.72-2.68-8.88-2.25-13.14-1.51
				c-2.67,0.46-5.32,1.2-7.87,2.1c-1.25,0.44-2.48,0.95-3.7,1.46c-0.49,0.2-0.97,0.4-1.46,0.6c-1.28,0.53,1.39-0.51-0.02,0
				c-0.43,0.16-0.86,0.31-1.29,0.46c-1.48,0.52,1.58-0.41,0.18-0.07c1.22-0.26,1.44-0.31,0.64-0.15c-0.14,0.03-0.29,0.05-0.43,0.08
				c1.07-0.14,1.23-0.18,0.49-0.11c0.76-0.03,0.92-0.05,0.48-0.05c-0.34-0.01-0.29,0,0.18,0.03c-0.28-0.04-0.57-0.09-0.85-0.15
				c-0.36-0.09-0.44-0.1-0.78-0.24c-0.77-0.32-1.49-0.78-2.2-1.21c-1.71-1.05-3.43-2.06-5.44-2.41c-4.3-0.75-9.05,0.54-12.94,2.28
				c-0.76,0.34-2.61,1.19-3,2.12c-0.36,0.86,0.41,1.25,1.15,1.39C141.3,156.47,145.29,155.23,148.19,153.94L148.19,153.94z"/>
		</g>
	</g>
	<g class="st0">
		<g class="st3">
			<path class="st12" d="M171.22,157.28c0.99-0.67,1.98-1.35,2.98-2.02c1.33-0.9,2.17-2.04,2.39-3.65c0.2-1.47-0.19-3.19-1.38-4.2
				c-0.48-0.41-0.97-0.83-1.45-1.24c-1.18,2.85-2.36,5.69-3.54,8.54c2.83-0.06,5.67-0.13,8.5-0.19c1.3-0.03,2.61-0.54,3.54-1.46
				c0.87-0.87,1.52-2.29,1.46-3.54c-0.06-1.29-0.48-2.63-1.46-3.54c-0.97-0.89-2.19-1.49-3.54-1.46c-2.83,0.06-5.67,0.13-8.5,0.19
				c-2.01,0.04-3.79,1.22-4.57,3.07c-0.36,0.85-0.46,1.68-0.34,2.59c0.14,1.02,0.56,2.18,1.38,2.87c0.48,0.41,0.97,0.83,1.45,1.24
				c0.34-2.62,0.67-5.24,1.01-7.85c-0.99,0.67-1.98,1.35-2.98,2.02c-1.09,0.74-1.94,1.69-2.3,2.99c-0.33,1.2-0.18,2.79,0.5,3.85
				c0.69,1.07,1.71,2.01,2.99,2.3C168.62,158.08,170.11,158.04,171.22,157.28L171.22,157.28z"/>
		</g>
	</g>
	<g class="st0">
		<g class="st3">
			<path class="st12" d="M184.76,156.48c0.35,0.24,0.71,0.48,1.06,0.72c2.17,1.47,4.55-1.35,3.42-3.42
				c-3.33-6.13-10.55-7.66-16.97-7.65c-7.43,0.01-14.88,0.82-22.19,2.13c-1.33,0.24-2.08,1.86-1.75,3.08
				c0.38,1.4,1.74,1.99,3.08,1.75c6.42-1.15,12.93-1.8,19.45-1.93c5-0.1,11.35,0.18,14.05,5.16c1.14-1.14,2.28-2.28,3.42-3.42
				c-0.35-0.24-0.71-0.48-1.06-0.72C184.61,150.35,182.11,154.68,184.76,156.48L184.76,156.48z"/>
		</g>
	</g>
	<g id="Слой_6">
		<radialGradient id="SVGID_17_" cx="161.2007" cy="162.198" r="28.2351" gradientUnits="userSpaceOnUse">
			<stop  offset="0.2536" style="stop-color:#FEF395"/>
			<stop  offset="0.4571" style="stop-color:#FFDA6A"/>
			<stop  offset="0.6726" style="stop-color:#F9B131"/>
			<stop  offset="0.9017" style="stop-color:#EA7F08"/>
			<stop  offset="1" style="stop-color:#E97B03"/>
		</radialGradient>
		<circle class="st13" cx="161.2" cy="162.2" r="28.24"/>
	</g>
	<g>
		<g>
			<linearGradient id="SVGID_18_" gradientUnits="userSpaceOnUse" x1="135.5406" y1="174.1239" x2="186.1712" y2="174.1239">
				<stop  offset="0" style="stop-color:#006495"/>
				<stop  offset="0.5112" style="stop-color:#85BBE6"/>
				<stop  offset="1" style="stop-color:#BBD8F3"/>
			</linearGradient>
			<path class="st14" d="M140.71,169.79c-0.72,1.09-0.13-0.06,0.16-0.1c-0.46,0.07-0.62,0.43-0.12,0.14c1.04-0.6-1,0.21,0.17-0.09
				c0.24-0.06,0.49-0.12,0.73-0.19c1.14-0.34-1.15-0.04,0.24-0.01c0.3,0.01,0.61-0.01,0.91,0.01c0.45,0.02,0.91,0.06,1.36,0.12
				c-1.12-0.14,0.38,0.08,0.48,0.1c3.44,0.59,6.89,1.07,10.38,1.15c6.63,0.16,13.41-0.82,19.71-2.9c1.43-0.47,2.82-1.06,4.26-1.5
				c0.35-0.1,0.74-0.16,1.08-0.28c0.65-0.24-1.03-0.08,0.19-0.03c0.16,0.01,1.2,0.24,0.63,0c-0.33-0.04-0.31-0.02,0.06,0.07
				c-0.71-0.32-0.83-0.35-0.36-0.09c-1-0.68-0.44-0.36-0.18-0.07c0.44,0.49-0.59-1.05-0.14-0.13c-0.08-0.21-0.17-0.43-0.25-0.64
				c0.11,0.41,0.13,0.38,0.05-0.1c-0.01-0.13-0.03-0.25-0.04-0.38c0,0.54,0.04,0.38,0.12-0.49c0.2-0.66,0.58-0.88,0.99-1.35
				c0.45-0.53-0.11,0.2-0.39,0.19c0.17-0.08,0.35-0.15,0.52-0.23c-0.19,0.07-0.37,0.13-0.56,0.2c-0.51,0.18-1.03,0.35-1.54,0.51
				c-3.09,1-6.23,1.86-9.4,2.57c-1.51,0.34-3.03,0.64-4.55,0.91c-0.76,0.13-1.52,0.26-2.29,0.38c-0.31,0.05-0.61,0.09-0.92,0.14
				c-0.6,0.08-0.61,0.09-0.05,0.01c-0.31,0.04-0.61,0.08-0.92,0.12c-7.22,0.89-14.52,1-21.77,0.37c-1.71-0.15-3.49,1.06-4.32,2.48
				c-0.94,1.61-0.83,3.43,0,5.05c4.57,8.88,15.58,8.82,24.13,7.91c9-0.96,17.83-2.95,26.31-6.14c-1.88-2.45-3.76-4.9-5.65-7.34
				c-0.47,0.88-0.98,1.74-1.55,2.56c-0.15,0.21-1.02,1.61-0.33,0.49c-0.25,0.41-0.64,0.79-0.96,1.14c-0.58,0.65-1.19,1.28-1.83,1.87
				c-0.37,0.34-0.74,0.67-1.13,0.99c-0.19,0.16-0.39,0.32-0.58,0.47c0.52-0.4,0.56-0.44,0.12-0.11c-1.57,1.05-3.14,1.99-4.85,2.8
				c-0.51,0.22-0.46,0.2,0.16-0.07c-0.23,0.09-0.46,0.18-0.7,0.27c-0.35,0.13-0.7,0.25-1.06,0.36c-0.95,0.3-1.92,0.55-2.9,0.74
				c-0.27,0.05-1.9,0.47-0.57,0.12c-0.48,0.13-1.06,0.11-1.56,0.14c-0.91,0.05-1.83,0.06-2.74,0.01c-0.52-0.02-1.04-0.08-1.56-0.12
				c-0.57-0.07-0.52-0.06,0.16,0.03c-0.26-0.04-0.52-0.08-0.77-0.13c-0.9-0.16-1.79-0.37-2.67-0.62c-0.99-0.28-2.03-0.58-2.96-1.02
				c1.18,0.56-0.38-0.2-0.59-0.3c-0.35-0.17-0.7-0.36-1.04-0.55c-0.92-0.51-1.78-1.09-2.65-1.67c-0.45-0.33-0.42-0.31,0.07,0.08
				c-0.21-0.16-0.41-0.33-0.61-0.49c-0.4-0.34-0.79-0.69-1.17-1.04c-1.91-1.79-5.2-2.04-7.07,0c-1.78,1.94-2.04,5.16,0,7.07
				c5.78,5.4,13.35,8.53,21.26,8.78c7.75,0.25,15.11-2.63,21.08-7.45c3.12-2.52,5.76-5.78,7.65-9.31c0.96-1.8,0.87-3.92-0.39-5.55
				c-1.13-1.47-3.4-2.49-5.26-1.79c-3.73,1.4-7.53,2.6-11.39,3.55c-1.89,0.47-3.8,0.89-5.72,1.25c-1,0.19-2,0.36-3,0.52
				c-0.54,0.08-1.08,0.16-1.62,0.24c0.9-0.13-0.26,0.03-0.53,0.06c-3.81,0.46-7.82,0.95-11.66,0.49c1.06,0.13-0.28-0.07-0.5-0.12
				c-0.48-0.11-0.96-0.23-1.43-0.39c-1.23-0.4,0.52,0.35-0.36-0.12c-0.33-0.18-0.66-0.33-0.98-0.53c-0.06-0.04-0.94-0.54-0.93-0.61
				c0.47,0.37,0.57,0.44,0.3,0.2c-0.14-0.12-0.27-0.24-0.4-0.37c-0.17-0.17-0.34-0.35-0.5-0.53c0.11,0.15,0.22,0.29,0.33,0.44
				c-0.33-0.27-0.56-0.88-0.76-1.25c-1.44,2.51-2.88,5.02-4.32,7.52c7.48,0.65,15.02,0.51,22.46-0.46
				c7.61-0.98,15.36-2.47,22.54-5.24c2.06-0.8,3.92-1.95,4.94-4c1.2-2.4,1.03-5.24-0.3-7.56c-2.43-4.23-7.19-5.37-11.71-4.31
				c-1.61,0.38-3.13,1.06-4.69,1.59c-1.87,0.63-3.77,1.17-5.7,1.59c-0.74,0.16-1.49,0.31-2.23,0.45c-0.45,0.08-0.9,0.15-1.35,0.22
				c-1.48,0.25,1.02-0.09-0.48,0.07c-1.97,0.21-3.93,0.36-5.91,0.38c-1.97,0.02-3.95-0.07-5.91-0.26c-0.45-0.05-0.91-0.1-1.36-0.15
				c1.15,0.14-0.73-0.12-0.92-0.15c-1.35-0.22-2.68-0.46-4.04-0.64c-4.88-0.63-9.72,0.76-12.53,5.02c-1.44,2.19-0.5,5.63,1.79,6.84
				C136.38,172.91,139.17,172.13,140.71,169.79L140.71,169.79z"/>
		</g>
	</g>
</g>
<g id="Текст">
	<g>
		<g>
			<path d="M36.65,166.32v22.43h-5.89v-57.65h16.4c3.34,0,6.29,0.38,8.86,1.13c2.57,0.75,4.74,1.84,6.52,3.26
				c1.77,1.42,3.12,3.16,4.03,5.23c0.92,2.06,1.37,4.42,1.37,7.08c0,2.68-0.52,5.15-1.55,7.42c-1.03,2.27-2.52,4.22-4.45,5.87
				c-1.94,1.65-4.29,2.93-7.07,3.86c-2.78,0.92-5.92,1.39-9.44,1.39H36.65z M36.65,136.01v25.41h8.42c5.47,0,9.62-1.15,12.45-3.46
				c2.84-2.3,4.25-5.56,4.25-9.77c0-8.12-5.23-12.18-15.69-12.18H36.65z"/>
			<path d="M119.09,188.76l-7-17.05H84.83l-6.83,17.05h-6.56l24.2-57.65h5.94l24.07,57.65H119.09z M99.72,141.2
				c-0.21-0.51-0.42-1.1-0.64-1.77s-0.41-1.43-0.55-2.29h-0.18c-0.18,0.86-0.38,1.62-0.6,2.29s-0.44,1.26-0.64,1.77l-10.28,25.65
				h23.27L99.72,141.2z"/>
			<path d="M197.92,188.76v-57.65h17.37c2.63,0,5,0.32,7.11,0.96c2.11,0.64,3.92,1.55,5.41,2.71s2.64,2.57,3.44,4.2
				c0.8,1.64,1.2,3.43,1.2,5.39c0,1.66-0.25,3.22-0.75,4.66c-0.5,1.45-1.23,2.77-2.17,3.96c-0.95,1.19-2.11,2.23-3.48,3.1
				c-1.37,0.87-2.93,1.56-4.68,2.07v0.16c2.13,0.19,4.06,0.66,5.81,1.41c1.74,0.75,3.24,1.73,4.48,2.93s2.2,2.62,2.88,4.24
				c0.68,1.62,1.02,3.4,1.02,5.33c0,2.44-0.49,4.67-1.46,6.69c-0.97,2.02-2.34,3.77-4.1,5.23c-1.76,1.46-3.85,2.59-6.27,3.4
				s-5.1,1.21-8.02,1.21H197.92z M203.82,136.01v20.46h8.24c2.16,0,4.11-0.25,5.85-0.76c1.74-0.51,3.24-1.25,4.48-2.21
				c1.24-0.96,2.19-2.13,2.86-3.5s1-2.91,1-4.62c0-6.24-4.28-9.37-12.85-9.37H203.82z M203.82,161.3v22.59h10.95
				c4.7,0,8.31-1,10.84-3c2.53-2,3.79-4.83,3.79-8.5c0-7.4-5.54-11.1-16.62-11.1H203.82z"/>
			<path d="M252.8,188.76v-57.65h30.98v4.9H258.7v21.15h23.22v4.82H258.7v21.91h26.5v4.86H252.8z"/>
			<path d="M320.8,136.01v52.74h-5.89v-52.74h-18.3v-4.9h42.55v4.9H320.8z"/>
		</g>
	</g>
	<g>
		<path d="M173.78,234.18l-8.58-10.65c-0.24-0.31-0.39-0.52-0.46-0.65h-0.06v11.3h-1.96v-22.75h1.96v10.71h0.06
			c0.07-0.12,0.14-0.23,0.22-0.33c0.08-0.11,0.16-0.22,0.25-0.33l8.21-10.04h2.49l-9.15,10.98l9.75,11.77H173.78z"/>
		<path d="M194.3,234.18l-2.32-6.73h-9.05l-2.27,6.73h-2.18l8.03-22.75h1.97l7.99,22.75H194.3z M187.87,215.41
			c-0.07-0.2-0.14-0.43-0.21-0.7s-0.13-0.57-0.18-0.9h-0.06c-0.06,0.34-0.13,0.64-0.2,0.9s-0.14,0.5-0.21,0.7l-3.41,10.12h7.72
			L187.87,215.41z"/>
		<path d="M212.9,227.85c0,0.93-0.16,1.81-0.49,2.63c-0.33,0.82-0.81,1.53-1.44,2.13c-0.63,0.6-1.42,1.08-2.35,1.43
			c-0.93,0.35-2,0.52-3.21,0.52c-1.19,0-2.24-0.13-3.16-0.38s-1.7-0.6-2.35-1.05v-2.29c0.82,0.66,1.72,1.14,2.68,1.45
			c0.96,0.31,1.92,0.47,2.88,0.47c0.85,0,1.62-0.12,2.29-0.37c0.67-0.24,1.24-0.58,1.71-1s0.82-0.92,1.06-1.5
			c0.24-0.58,0.36-1.2,0.36-1.86c0-1.62-0.51-2.82-1.54-3.59c-1.03-0.78-2.51-1.17-4.47-1.17h-2.04v-1.76h1.74
			c0.85,0,1.62-0.1,2.3-0.31s1.26-0.51,1.74-0.9s0.84-0.88,1.09-1.45s0.38-1.22,0.38-1.94c0-0.58-0.09-1.12-0.28-1.61
			s-0.46-0.92-0.82-1.28s-0.8-0.64-1.32-0.85s-1.13-0.31-1.82-0.31c-0.89,0-1.76,0.15-2.59,0.44s-1.62,0.72-2.35,1.27v-2.13
			c0.72-0.42,1.49-0.76,2.32-1.02c0.83-0.26,1.76-0.39,2.79-0.39c0.96,0,1.82,0.14,2.58,0.41c0.76,0.28,1.4,0.66,1.92,1.14
			c0.52,0.49,0.92,1.07,1.19,1.74c0.27,0.67,0.41,1.4,0.41,2.2c0,1.48-0.35,2.7-1.06,3.66c-0.71,0.96-1.75,1.63-3.12,2.02v0.06
			c0.8,0.07,1.52,0.27,2.13,0.6c0.62,0.33,1.14,0.74,1.56,1.25c0.42,0.5,0.74,1.07,0.96,1.71
			C212.79,226.48,212.9,227.15,212.9,227.85z"/>
		<path d="M232.2,234.18l-2.32-6.73h-9.05l-2.27,6.73h-2.18l8.03-22.75h1.97l7.99,22.75H232.2z M225.77,215.41
			c-0.07-0.2-0.14-0.43-0.21-0.7s-0.13-0.57-0.18-0.9h-0.06c-0.06,0.34-0.13,0.64-0.2,0.9s-0.14,0.5-0.21,0.7l-3.41,10.12h7.72
			L225.77,215.41z"/>
		<path d="M252.4,234.18v-10.65h-11.5v10.65h-1.96v-22.75h1.96v10.2h11.5v-10.2h1.96v22.75H252.4z"/>
		<path d="M273.7,227.5c0,0.97-0.15,1.87-0.45,2.69s-0.73,1.53-1.29,2.12c-0.56,0.59-1.25,1.05-2.07,1.38
			c-0.81,0.33-1.74,0.49-2.78,0.49h-6.05v-22.75h1.96v9.88h4.4c0.94,0,1.8,0.13,2.57,0.38c0.77,0.25,1.44,0.64,1.99,1.16
			c0.55,0.52,0.97,1.16,1.27,1.94C273.55,225.56,273.7,226.46,273.7,227.5z M271.64,227.64c0-1.53-0.41-2.65-1.24-3.36
			s-2.05-1.06-3.66-1.06h-3.72v9.03h3.77c0.82,0,1.54-0.11,2.15-0.33c0.61-0.22,1.11-0.53,1.52-0.94c0.4-0.4,0.7-0.89,0.9-1.45
			C271.54,228.97,271.64,228.34,271.64,227.64z"/>
	</g>
	<path class="st15" d="M155.4,191.31c-13.55-2.72-23.75-14.68-23.75-29.03c0-14.69,10.7-26.88,24.72-29.21"/>
	<path class="st15" d="M166.25,133.1c13.97,2.37,24.62,14.54,24.62,29.19c0,14.75-10.78,26.97-24.89,29.23"/>
	<g>
		<g>
			<path d="M134.22,134.84c-2.52-2.49-5.04-4.98-7.56-7.47c-0.63-0.62-3.34,0.44-2.71,1.07c2.52,2.49,5.04,4.98,7.56,7.47
				C132.14,136.53,134.85,135.46,134.22,134.84L134.22,134.84z"/>
		</g>
	</g>
	<g>
		<g>
			<path d="M148.97,126.96c-2.3-2.71-4.6-5.42-6.9-8.13c-0.59-0.69-3.36,0.31-2.7,1.09c2.3,2.71,4.6,5.42,6.9,8.13
				C146.85,128.75,149.63,127.74,148.97,126.96L148.97,126.96z"/>
		</g>
	</g>
	<g>
		<g>
			<path d="M163.01,125.31c-0.11-3.87-0.23-7.73-0.34-11.6c-0.02-0.71-0.69-0.97-1.33-0.92c-0.53,0.04-1.62,0.45-1.6,1.15
				c0.11,3.87,0.23,7.73,0.34,11.6c0.02,0.71,0.69,0.97,1.33,0.92C161.94,126.42,163.03,126.01,163.01,125.31L163.01,125.31z"/>
		</g>
	</g>
	<g>
		<g>
			<path d="M178.38,127.13c2.48-3.24,4.96-6.47,7.44-9.71c0.48-0.63-1.6-0.46-1.74-0.43c-0.88,0.17-1.97,0.44-2.55,1.19
				c-2.48,3.24-4.96,6.47-7.44,9.71c-0.48,0.63,1.6,0.46,1.74,0.43C176.72,128.15,177.81,127.88,178.38,127.13L178.38,127.13z"/>
		</g>
	</g>
	<g>
		<g>
			<path d="M187.42,135.61c2.34-2.11,4.68-4.23,7.02-6.34c0.19-0.17,0.47-0.44,0.39-0.74c-0.08-0.28-0.47-0.41-0.71-0.44
				c-0.84-0.12-2.01,0.13-2.66,0.71c-2.34,2.11-4.68,4.23-7.02,6.34c-0.19,0.17-0.47,0.44-0.39,0.74c0.08,0.28,0.47,0.41,0.71,0.44
				C185.59,136.44,186.77,136.2,187.42,135.61L187.42,135.61z"/>
		</g>
	</g>
	<g>
		<g>
			<path d="M133.78,163.61c1.91-3.32,5.28-4.2,8.9-3.87c4.43,0.4,8.67,2.03,13.14,2.14c4.23,0.11,8.28-1.15,12.24-2.48
				c3.55-1.19,7.01-2.39,10.81-2.09c3.55,0.28,7.26,1.73,9.02,5.02c0.39,0.73,3.15-0.31,2.9-0.78c-3.73-6.96-13.65-6.03-19.97-4.08
				c-4.77,1.47-9.41,3.58-14.51,3.13c-4.8-0.42-9.39-2.3-14.25-2.12c-4.3,0.15-8.89,1.75-11.14,5.65c-0.27,0.47,1.03,0.33,1.17,0.31
				C132.61,164.33,133.48,164.12,133.78,163.61L133.78,163.61z"/>
		</g>
	</g>
	<g>
		<g>
			<path d="M77.42,238.36c0.85-0.49,1.7-0.98,2.55-1.47c0.18-0.1,0.37-0.21,0.55-0.31c0.59-0.34-0.45,0.25-0.45,0.25
				c0.48-0.29,0.98-0.55,1.47-0.82c1.72-0.95,3.44-1.88,5.18-2.8c3.47-1.83,6.98-3.59,10.52-5.28c3.54-1.69,7.12-3.3,10.72-4.85
				c0.38-0.16,1.22-0.5-0.51,0.21c0.19-0.08,0.39-0.16,0.58-0.24c0.45-0.19,0.9-0.38,1.36-0.57c0.91-0.38,1.81-0.75,2.72-1.11
				c1.82-0.73,3.64-1.45,5.48-2.14c3.67-1.39,7.36-2.71,11.08-3.96c0.93-0.31,1.86-0.62,2.79-0.92c0.4-0.13,0.8-0.26,1.2-0.39
				c0.46-0.15,1.38-0.43-0.7,0.22c0.27-0.08,0.53-0.17,0.8-0.25c1.87-0.58,3.75-1.15,5.63-1.7c3.77-1.1,7.55-2.12,11.36-3.07
				c1.9-0.47,3.81-0.93,5.72-1.37c0.48-0.11,0.96-0.22,1.44-0.32c1.66-0.37-1.36,0.29-0.1,0.02c0.96-0.21,1.92-0.41,2.88-0.61
				c7.69-1.59,15.43-2.88,23.22-3.88c0.28-0.04,0.56-0.07,0.83-0.11c0.06-0.01-1.52,0.18-0.75,0.09c0.49-0.06,0.97-0.12,1.46-0.17
				c0.97-0.11,1.95-0.22,2.92-0.33c1.95-0.21,3.9-0.4,5.86-0.57c3.91-0.34,7.82-0.61,11.74-0.8c1.96-0.1,3.92-0.17,5.88-0.23
				c0.98-0.03,1.96-0.05,2.94-0.07c0.42-0.01,0.84-0.02,1.26-0.02c0.28,0,0.56-0.01,0.84-0.01c0.78-0.01,0.06-0.01-0.31,0
				c3.9-0.18,7.87,0.01,11.77,0.12c7.84,0.24,15.67,0.78,23.47,1.62c1.95,0.21,3.9,0.44,5.84,0.69c0.97,0.13,1.94,0.26,2.92,0.39
				c0.42,0.06,0.83,0.12,1.25,0.18c-1-0.14,0.51,0.08,0.82,0.12c3.88,0.58,7.74,1.25,11.59,1.98c7.7,1.48,15.35,3.27,22.91,5.37
				c1.89,0.53,3.78,1.07,5.65,1.64c1.38,0.41,3.26,0.18,4.63-0.05c1.83-0.31,3.86-0.88,5.52-1.74c1.38-0.72,4.88-3.04,1.72-3.99
				c-15.72-4.71-31.81-8.03-48.08-10.1c-16.3-2.08-32.75-2.75-49.17-2.23c-16.49,0.52-32.97,2.36-49.18,5.43
				c-16.86,3.2-33.48,7.7-49.63,13.5c-15.59,5.6-30.77,12.42-45.23,20.49c-2.05,1.14-4.09,2.3-6.11,3.48
				c-0.57,0.33-1.91,1.38-1.67,2.27c0.25,0.91,1.91,1.1,2.58,1.13C70.73,241.28,74.38,240.13,77.42,238.36L77.42,238.36z"/>
		</g>
	</g>
	<g>
	</g>
	<g>
	</g>
	<g>
	</g>
	<g>
	</g>
	<g>
	</g>
	<g>
	</g>
</g>
</svg>
